<mxfile host="drawio-plugin" modified="2022-11-16T17:28:44.155Z" agent="5.0 (Windows NT 6.2; Win64; x64) AppleWebKit/537.36 (KHTML, like Gecko) Chrome/98.0.4758.102 Safari/537.36" etag="R8JMPlTxTqIcGyE2-r28" version="15.5.4" type="embed"><diagram id="YKz1HA1HloDZqx1yz59V" name="Pagina-1"><mxGraphModel dx="749" dy="581" grid="1" gridSize="10" guides="1" tooltips="1" connect="1" arrows="1" fold="1" page="1" pageScale="1" pageWidth="827" pageHeight="1169" math="0" shadow="0"><root><mxCell id="0"/><mxCell id="1" parent="0"/><mxCell id="gDypl5PAIjwtZuF4kjGa-1" value="MinervaExpress" style="text;html=1;align=center;verticalAlign=middle;resizable=0;points=[];autosize=1;strokeColor=none;fillColor=none;" parent="1" vertex="1"><mxGeometry x="373" y="70" width="100" height="20" as="geometry"/></mxCell><mxCell id="gDypl5PAIjwtZuF4kjGa-2" style="edgeStyle=orthogonalEdgeStyle;rounded=0;orthogonalLoop=1;jettySize=auto;html=1;entryX=0.482;entryY=1.07;entryDx=0;entryDy=0;entryPerimeter=0;" parent="1" source="gDypl5PAIjwtZuF4kjGa-5" edge="1"><mxGeometry relative="1" as="geometry"><mxPoint x="208.3159999999998" y="200" as="targetPoint"/></mxGeometry></mxCell><mxCell id="gDypl5PAIjwtZuF4kjGa-3" style="edgeStyle=orthogonalEdgeStyle;rounded=0;orthogonalLoop=1;jettySize=auto;html=1;exitX=1;exitY=0.25;exitDx=0;exitDy=0;entryX=0;entryY=0.25;entryDx=0;entryDy=0;" parent="1" source="gDypl5PAIjwtZuF4kjGa-5" target="gDypl5PAIjwtZuF4kjGa-14" edge="1"><mxGeometry relative="1" as="geometry"/></mxCell><mxCell id="gDypl5PAIjwtZuF4kjGa-4" style="edgeStyle=orthogonalEdgeStyle;rounded=0;orthogonalLoop=1;jettySize=auto;html=1;exitX=0.25;exitY=1;exitDx=0;exitDy=0;entryX=0;entryY=0.75;entryDx=0;entryDy=0;" parent="1" source="gDypl5PAIjwtZuF4kjGa-5" target="gDypl5PAIjwtZuF4kjGa-30" edge="1"><mxGeometry relative="1" as="geometry"/></mxCell><mxCell id="gDypl5PAIjwtZuF4kjGa-5" value="Customer Service" style="rounded=1;whiteSpace=wrap;html=1;" parent="1" vertex="1"><mxGeometry x="149" y="256.5" width="120" height="60" as="geometry"/></mxCell><mxCell id="gDypl5PAIjwtZuF4kjGa-6" style="edgeStyle=orthogonalEdgeStyle;rounded=0;orthogonalLoop=1;jettySize=auto;html=1;exitX=0;exitY=0.75;exitDx=0;exitDy=0;entryX=1;entryY=0.75;entryDx=0;entryDy=0;" parent="1" source="gDypl5PAIjwtZuF4kjGa-9" target="gDypl5PAIjwtZuF4kjGa-14" edge="1"><mxGeometry relative="1" as="geometry"/></mxCell><mxCell id="gDypl5PAIjwtZuF4kjGa-7" style="edgeStyle=orthogonalEdgeStyle;rounded=0;orthogonalLoop=1;jettySize=auto;html=1;entryX=0.526;entryY=1.07;entryDx=0;entryDy=0;entryPerimeter=0;" parent="1" source="gDypl5PAIjwtZuF4kjGa-9" target="gDypl5PAIjwtZuF4kjGa-20" edge="1"><mxGeometry relative="1" as="geometry"/></mxCell><mxCell id="gDypl5PAIjwtZuF4kjGa-8" style="edgeStyle=orthogonalEdgeStyle;rounded=0;orthogonalLoop=1;jettySize=auto;html=1;exitX=0.75;exitY=1;exitDx=0;exitDy=0;entryX=1;entryY=0.75;entryDx=0;entryDy=0;" parent="1" source="gDypl5PAIjwtZuF4kjGa-9" target="gDypl5PAIjwtZuF4kjGa-30" edge="1"><mxGeometry relative="1" as="geometry"/></mxCell><mxCell id="gDypl5PAIjwtZuF4kjGa-9" value="Products Service" style="rounded=1;whiteSpace=wrap;html=1;" parent="1" vertex="1"><mxGeometry x="564" y="256.5" width="120" height="60" as="geometry"/></mxCell><mxCell id="gDypl5PAIjwtZuF4kjGa-10" style="edgeStyle=orthogonalEdgeStyle;rounded=0;orthogonalLoop=1;jettySize=auto;html=1;exitX=0;exitY=0.75;exitDx=0;exitDy=0;entryX=1;entryY=0.75;entryDx=0;entryDy=0;" parent="1" source="gDypl5PAIjwtZuF4kjGa-14" target="gDypl5PAIjwtZuF4kjGa-5" edge="1"><mxGeometry relative="1" as="geometry"/></mxCell><mxCell id="gDypl5PAIjwtZuF4kjGa-11" style="edgeStyle=orthogonalEdgeStyle;rounded=0;orthogonalLoop=1;jettySize=auto;html=1;exitX=1;exitY=0.25;exitDx=0;exitDy=0;entryX=0;entryY=0.25;entryDx=0;entryDy=0;" parent="1" source="gDypl5PAIjwtZuF4kjGa-14" target="gDypl5PAIjwtZuF4kjGa-9" edge="1"><mxGeometry relative="1" as="geometry"/></mxCell><mxCell id="gDypl5PAIjwtZuF4kjGa-12" style="edgeStyle=orthogonalEdgeStyle;rounded=0;orthogonalLoop=1;jettySize=auto;html=1;entryX=0.526;entryY=1;entryDx=0;entryDy=0;entryPerimeter=0;" parent="1" source="gDypl5PAIjwtZuF4kjGa-14" target="gDypl5PAIjwtZuF4kjGa-18" edge="1"><mxGeometry relative="1" as="geometry"/></mxCell><mxCell id="gDypl5PAIjwtZuF4kjGa-13" style="edgeStyle=orthogonalEdgeStyle;rounded=0;orthogonalLoop=1;jettySize=auto;html=1;exitX=0.75;exitY=1;exitDx=0;exitDy=0;entryX=0.75;entryY=0;entryDx=0;entryDy=0;" parent="1" source="gDypl5PAIjwtZuF4kjGa-14" target="gDypl5PAIjwtZuF4kjGa-30" edge="1"><mxGeometry relative="1" as="geometry"/></mxCell><mxCell id="gDypl5PAIjwtZuF4kjGa-14" value="Order Service" style="rounded=1;whiteSpace=wrap;html=1;" parent="1" vertex="1"><mxGeometry x="364" y="256.5" width="120" height="60" as="geometry"/></mxCell><mxCell id="gDypl5PAIjwtZuF4kjGa-15" value="" style="sketch=0;aspect=fixed;html=1;points=[];align=center;image;fontSize=12;image=img/lib/mscae/aspect=fixed;html=1;perimeter=none;align=center;shadow=0;dashed=0;image;fontSize=12;image=img/lib/mscae/Azure_Database_for_MariaDB_servers.svg;" parent="1" vertex="1"><mxGeometry x="190" y="150" width="38" height="50" as="geometry"/></mxCell><mxCell id="gDypl5PAIjwtZuF4kjGa-16" value="REST API" style="text;html=1;align=center;verticalAlign=middle;resizable=0;points=[];autosize=1;strokeColor=none;fillColor=none;" parent="1" vertex="1"><mxGeometry x="484" y="276.5" width="70" height="20" as="geometry"/></mxCell><mxCell id="gDypl5PAIjwtZuF4kjGa-17" value="REST API" style="text;html=1;align=center;verticalAlign=middle;resizable=0;points=[];autosize=1;strokeColor=none;fillColor=none;" parent="1" vertex="1"><mxGeometry x="284" y="276.5" width="70" height="20" as="geometry"/></mxCell><mxCell id="gDypl5PAIjwtZuF4kjGa-18" value="" style="sketch=0;aspect=fixed;html=1;points=[];align=center;image;fontSize=12;image=img/lib/mscae/Database_General.svg;" parent="1" vertex="1"><mxGeometry x="404" y="150" width="38" height="50" as="geometry"/></mxCell><mxCell id="gDypl5PAIjwtZuF4kjGa-19" value="MongoDB" style="text;html=1;align=center;verticalAlign=middle;resizable=0;points=[];autosize=1;strokeColor=none;fillColor=none;" parent="1" vertex="1"><mxGeometry x="389" y="120" width="70" height="20" as="geometry"/></mxCell><mxCell id="gDypl5PAIjwtZuF4kjGa-20" value="" style="sketch=0;aspect=fixed;html=1;points=[];align=center;image;fontSize=12;image=img/lib/mscae/aspect=fixed;html=1;perimeter=none;align=center;shadow=0;dashed=0;image;fontSize=12;image=img/lib/mscae/Azure_Database_for_MariaDB_servers.svg;" parent="1" vertex="1"><mxGeometry x="605" y="150" width="38" height="50" as="geometry"/></mxCell><mxCell id="gDypl5PAIjwtZuF4kjGa-21" value="Spring Boot" style="text;html=1;align=center;verticalAlign=middle;resizable=0;points=[];autosize=1;strokeColor=none;fillColor=none;" parent="1" vertex="1"><mxGeometry x="9" y="260" width="80" height="20" as="geometry"/></mxCell><mxCell id="gDypl5PAIjwtZuF4kjGa-22" value="Spring Boot" style="text;html=1;align=center;verticalAlign=middle;resizable=0;points=[];autosize=1;strokeColor=none;fillColor=none;" parent="1" vertex="1"><mxGeometry x="259" y="230" width="80" height="20" as="geometry"/></mxCell><mxCell id="gDypl5PAIjwtZuF4kjGa-23" value="Spring Boot" style="text;html=1;align=center;verticalAlign=middle;resizable=0;points=[];autosize=1;strokeColor=none;fillColor=none;" parent="1" vertex="1"><mxGeometry x="684" y="260" width="80" height="20" as="geometry"/></mxCell><mxCell id="gDypl5PAIjwtZuF4kjGa-24" value="/nodeJs" style="text;html=1;align=center;verticalAlign=middle;resizable=0;points=[];autosize=1;strokeColor=none;fillColor=none;" parent="1" vertex="1"><mxGeometry x="79" y="260" width="60" height="20" as="geometry"/></mxCell><mxCell id="gDypl5PAIjwtZuF4kjGa-25" value="/nodeJs" style="text;html=1;align=center;verticalAlign=middle;resizable=0;points=[];autosize=1;strokeColor=none;fillColor=none;" parent="1" vertex="1"><mxGeometry x="335" y="230" width="60" height="20" as="geometry"/></mxCell><mxCell id="gDypl5PAIjwtZuF4kjGa-26" value="/nodeJs" style="text;html=1;align=center;verticalAlign=middle;resizable=0;points=[];autosize=1;strokeColor=none;fillColor=none;" parent="1" vertex="1"><mxGeometry x="759" y="260" width="60" height="20" as="geometry"/></mxCell><mxCell id="gDypl5PAIjwtZuF4kjGa-27" style="edgeStyle=orthogonalEdgeStyle;rounded=0;orthogonalLoop=1;jettySize=auto;html=1;exitX=0.25;exitY=0;exitDx=0;exitDy=0;entryX=0.25;entryY=1;entryDx=0;entryDy=0;" parent="1" source="gDypl5PAIjwtZuF4kjGa-30" target="gDypl5PAIjwtZuF4kjGa-14" edge="1"><mxGeometry relative="1" as="geometry"/></mxCell><mxCell id="gDypl5PAIjwtZuF4kjGa-28" style="edgeStyle=orthogonalEdgeStyle;rounded=0;orthogonalLoop=1;jettySize=auto;html=1;exitX=1;exitY=0.25;exitDx=0;exitDy=0;entryX=0.25;entryY=1;entryDx=0;entryDy=0;" parent="1" source="gDypl5PAIjwtZuF4kjGa-30" target="gDypl5PAIjwtZuF4kjGa-9" edge="1"><mxGeometry relative="1" as="geometry"/></mxCell><mxCell id="gDypl5PAIjwtZuF4kjGa-29" style="edgeStyle=orthogonalEdgeStyle;rounded=0;orthogonalLoop=1;jettySize=auto;html=1;exitX=0;exitY=0.25;exitDx=0;exitDy=0;entryX=0.75;entryY=1;entryDx=0;entryDy=0;" parent="1" source="gDypl5PAIjwtZuF4kjGa-30" target="gDypl5PAIjwtZuF4kjGa-5" edge="1"><mxGeometry relative="1" as="geometry"/></mxCell><mxCell id="gDypl5PAIjwtZuF4kjGa-30" value="Access Service" style="rounded=1;whiteSpace=wrap;html=1;" parent="1" vertex="1"><mxGeometry x="364" y="450" width="120" height="60" as="geometry"/></mxCell><mxCell id="gDypl5PAIjwtZuF4kjGa-31" style="edgeStyle=orthogonalEdgeStyle;rounded=0;orthogonalLoop=1;jettySize=auto;html=1;exitX=0.5;exitY=0;exitDx=0;exitDy=0;exitPerimeter=0;entryX=0.5;entryY=1;entryDx=0;entryDy=0;" parent="1" source="gDypl5PAIjwtZuF4kjGa-32" target="gDypl5PAIjwtZuF4kjGa-30" edge="1"><mxGeometry relative="1" as="geometry"/></mxCell><mxCell id="gDypl5PAIjwtZuF4kjGa-32" value="Gennaro" style="shape=umlActor;verticalLabelPosition=bottom;verticalAlign=top;html=1;outlineConnect=0;" parent="1" vertex="1"><mxGeometry x="409" y="595" width="30" height="60" as="geometry"/></mxCell><mxCell id="gDypl5PAIjwtZuF4kjGa-33" value="REST API" style="text;html=1;strokeColor=none;fillColor=none;align=center;verticalAlign=middle;whiteSpace=wrap;rounded=0;" parent="1" vertex="1"><mxGeometry x="395" y="390" width="60" height="30" as="geometry"/></mxCell><mxCell id="gDypl5PAIjwtZuF4kjGa-34" value="Spring Boot /nodejs" style="text;html=1;strokeColor=none;fillColor=none;align=center;verticalAlign=middle;whiteSpace=wrap;rounded=0;" parent="1" vertex="1"><mxGeometry x="484" y="510" width="125" height="30" as="geometry"/></mxCell><mxCell id="gDypl5PAIjwtZuF4kjGa-35" value="REST API" style="text;html=1;strokeColor=none;fillColor=none;align=center;verticalAlign=middle;whiteSpace=wrap;rounded=0;" parent="1" vertex="1"><mxGeometry x="179" y="390" width="60" height="30" as="geometry"/></mxCell><mxCell id="gDypl5PAIjwtZuF4kjGa-36" value="REST API" style="text;html=1;strokeColor=none;fillColor=none;align=center;verticalAlign=middle;whiteSpace=wrap;rounded=0;" parent="1" vertex="1"><mxGeometry x="594" y="390" width="60" height="30" as="geometry"/></mxCell></root></mxGraphModel></diagram></mxfile>